<svg xmlns="http://www.w3.org/2000/svg" width="127" height="153" viewBox="0 0 127 153" fill="none">
  <path d="M51.8802 4.01589C51.8802 2.24094 53.3198 0.794774 55.0931 0.871885C66.2866 1.35863 77.244 4.38374 87.149 9.74038C98 15.6086 107.253 24.0938 114.089 34.4445C120.924 44.7951 125.132 56.6916 126.338 69.0803C127.544 81.4689 125.711 93.9673 121.003 105.468C116.294 116.969 108.855 127.118 99.344 135.015C89.833 142.913 78.5438 148.315 66.4764 150.743C54.409 153.172 41.9358 152.552 30.1617 148.938C19.3906 145.633 9.50871 139.915 1.24247 132.225C-0.0388412 131.033 -0.034256 129.025 1.19589 127.781C2.44656 126.515 4.48509 126.521 5.7938 127.726C13.3067 134.646 22.2584 139.796 32.0059 142.787C42.7802 146.094 54.1942 146.662 65.237 144.439C76.2798 142.217 86.6104 137.273 95.3138 130.047C104.017 122.82 110.825 113.533 115.133 103.009C119.442 92.4841 121.119 81.047 120.015 69.7103C118.912 58.3736 115.062 47.4872 108.807 38.0155C102.551 28.5437 94.0839 20.779 84.1543 15.4091C75.1707 10.5508 65.2412 7.78832 55.0928 7.30602C53.3199 7.22176 51.8802 5.79084 51.8802 4.01589Z" fill="#06455E"/>
</svg>