<svg xmlns="http://www.w3.org/2000/svg" width="170" height="169" viewBox="0 0 170 169" fill="none">
  <path d="M85 3.58753C85 1.60619 86.607 -0.00795229 88.5866 0.076113C106.033 0.817018 122.856 6.94881 136.713 17.6714C151.517 29.1272 162.098 45.1745 166.796 63.2945C171.494 81.4146 170.041 100.582 162.667 117.787C155.293 134.992 142.415 149.262 126.054 158.357C109.692 167.451 90.7744 170.856 72.269 168.035C53.7636 165.215 36.7186 156.33 23.8091 142.775C10.8997 129.219 2.85683 111.761 0.942856 93.1399C-0.848618 75.7106 2.82442 58.1863 11.4055 42.9777C12.3791 41.2521 14.5984 40.7393 16.2811 41.7853C17.9639 42.8313 18.4721 45.0397 17.5053 46.7692C9.75955 60.6245 6.45137 76.5583 8.08031 92.4062C9.83176 109.446 17.1917 125.422 29.005 137.826C40.8182 150.231 56.416 158.362 73.35 160.942C90.2841 163.523 107.596 160.408 122.568 152.086C137.54 143.763 149.325 130.705 156.073 114.961C162.82 99.216 164.149 81.6766 159.851 65.0951C155.552 48.5137 145.869 33.829 132.322 23.346C119.722 13.5962 104.443 7.99423 88.5865 7.25824C86.6073 7.16637 85 5.56887 85 3.58753Z" fill="#2D9CDB"/>
</svg>